<?xml version="1.0" encoding="UTF-8"?>
<svg xmlns="http://www.w3.org/2000/svg" viewBox="0 0 300 380" width="300" height="380" fill="none">
  <defs>
    <filter id="shadow2" x="-15%" y="-10%" width="130%" height="130%">
      <feGaussianBlur in="SourceAlpha" stdDeviation="4"></feGaussianBlur>
      <feOffset dx="0" dy="6"></feOffset>
      <feComponentTransfer><feFuncA type="linear" slope="0.10"></feFuncA></feComponentTransfer>
      <feMerge><feMergeNode></feMergeNode><feMergeNode in="SourceGraphic"></feMergeNode></feMerge>
    </filter>
  </defs>
  <g filter="url(#shadow2)">
    <rect x="8" y="8" width="284" height="360" rx="12" fill="white"></rect>
  </g>
  
  <rect x="28" y="28" width="142" height="12" rx="6" fill="#cbd5c1"></rect>
  
  <rect x="28" y="56" width="250" height="6" rx="3" fill="#e6ede1"></rect>
  <rect x="28" y="70" width="220" height="6" rx="3" fill="#e6ede1"></rect>
  <rect x="28" y="84" width="234" height="6" rx="3" fill="#e6ede1"></rect>
  <rect x="28" y="98" width="196" height="6" rx="3" fill="#e6ede1"></rect>
  <rect x="28" y="112" width="210" height="6" rx="3" fill="#e6ede1"></rect>
  
  <rect x="28" y="138" width="128" height="10" rx="4" fill="#4ade80"></rect>
  
  <rect x="28" y="162" width="230" height="6" rx="3" fill="#e6ede1"></rect>
  <rect x="28" y="176" width="196" height="6" rx="3" fill="#e6ede1"></rect>
  <rect x="28" y="190" width="212" height="6" rx="3" fill="#e6ede1"></rect>
</svg>