<?xml version="1.0" encoding="UTF-8"?>
<svg xmlns="http://www.w3.org/2000/svg" viewBox="0 0 33 38" width="33" height="38" fill="none">

  <path d="M5 4h16l7 7v22a2 2 0 0 1-2 2H5a2 2 0 0 1-2-2V6a2 2 0 0 1 2-2Z" fill="#dcfce7" stroke="#86efac" stroke-width="1"></path>

  <path d="M21 4v7h7L21 4Z" fill="#e5e7eb" fill-opacity="0.5"></path>

  <path d="M21 4 C21 4 30 4 28 11 C26.5 15 22 13 21 11 Z" fill="#22c55e"></path>

  <path d="M21 4 C22 7 24 10 27 11" stroke="#15803d" stroke-width="0.8" stroke-linecap="round"></path>

  <path d="M22.5 7 C24 6.5 25.5 6.8 26.5 7.5" stroke="#15803d" stroke-width="0.5" stroke-linecap="round" stroke-opacity="0.7"></path>
  <path d="M23.5 9.2 C25 8.8 26 9.2 27 10" stroke="#15803d" stroke-width="0.5" stroke-linecap="round" stroke-opacity="0.7"></path>

  <rect x="7" y="15" width="14" height="1.8" rx="0.9" fill="#86efac"></rect>
  <rect x="7" y="19.5" width="11" height="1.8" rx="0.9" fill="#bbf7d0"></rect>
  <rect x="7" y="24" width="13" height="1.8" rx="0.9" fill="#bbf7d0"></rect>
  <rect x="7" y="28.5" width="9" height="1.8" rx="0.9" fill="#bbf7d0" fill-opacity="0.8"></rect>

</svg>